<?xml version="1.0" encoding="UTF-8"?>
<svg xmlns="http://www.w3.org/2000/svg" xmlns:xlink="http://www.w3.org/1999/xlink" width="256px" height="256px" viewBox="0 0 256 256" version="1.1">
<g id="surface1">
<path style=" stroke:none;fill-rule:nonzero;fill:rgb(97.647059%,56.078431%,1.176471%);fill-opacity:1;" d="M 220.367188 164.476562 C 221.886719 170.914062 217.898438 177.367188 211.460938 178.886719 C 205.019531 180.410156 198.566406 176.421875 197.046875 169.980469 C 195.527344 163.539062 199.515625 157.085938 205.957031 155.566406 C 212.394531 154.046875 218.847656 158.035156 220.367188 164.476562 Z M 220.367188 164.476562 "/>
<path style=" stroke:none;fill-rule:nonzero;fill:rgb(0%,15.686275%,50.980392%);fill-opacity:1;" d="M 170.132812 141.183594 C 170.132812 152.910156 164.53125 159.363281 154.363281 159.363281 C 144.195312 159.363281 138.59375 152.910156 138.59375 141.183594 L 138.59375 76.800781 L 117.402344 76.800781 L 117.402344 141.183594 C 117.402344 152.910156 111.800781 159.363281 101.632812 159.363281 C 91.464844 159.363281 85.863281 152.910156 85.863281 141.183594 L 85.863281 76.800781 L 64.671875 76.800781 L 64.671875 141.183594 C 64.671875 164.988281 77.871094 179.199219 99.972656 179.199219 C 112.324219 179.199219 121.980469 174.296875 128 164.996094 C 133.96875 174.167969 143.855469 179.199219 156.023438 179.199219 C 178.128906 179.199219 191.324219 164.988281 191.324219 141.183594 L 191.324219 76.800781 L 170.132812 76.800781 Z M 170.132812 141.183594 "/>
</g>
</svg>
