<?xml version="1.0" encoding="UTF-8"?>
<svg xmlns="http://www.w3.org/2000/svg" xmlns:xlink="http://www.w3.org/1999/xlink" width="32px" height="32px" viewBox="0 0 32 32" version="1.1">
<g id="surface1">
<path style=" stroke:none;fill-rule:nonzero;fill:rgb(97.647059%,56.078431%,1.176471%);fill-opacity:1;" d="M 27.546875 20.558594 C 27.734375 21.363281 27.238281 22.171875 26.433594 22.359375 C 25.628906 22.550781 24.820312 22.050781 24.632812 21.246094 C 24.441406 20.441406 24.941406 19.636719 25.746094 19.445312 C 26.550781 19.257812 27.355469 19.753906 27.546875 20.558594 Z M 27.546875 20.558594 "/>
<path style=" stroke:none;fill-rule:nonzero;fill:rgb(0%,15.686275%,50.980392%);fill-opacity:1;" d="M 21.265625 17.648438 C 21.265625 19.113281 20.566406 19.921875 19.296875 19.921875 C 18.023438 19.921875 17.324219 19.113281 17.324219 17.648438 L 17.324219 9.601562 L 14.675781 9.601562 L 14.675781 17.648438 C 14.675781 19.113281 13.976562 19.921875 12.703125 19.921875 C 11.433594 19.921875 10.734375 19.113281 10.734375 17.648438 L 10.734375 9.601562 L 8.082031 9.601562 L 8.082031 17.648438 C 8.082031 20.625 9.734375 22.398438 12.496094 22.398438 C 14.039062 22.398438 15.246094 21.785156 16 20.625 C 16.746094 21.769531 17.980469 22.398438 19.503906 22.398438 C 22.265625 22.398438 23.914062 20.625 23.914062 17.648438 L 23.914062 9.601562 L 21.265625 9.601562 Z M 21.265625 17.648438 "/>
</g>
</svg>
